<svg width="34" height="32" viewBox="0 0 34 32" fill="none" xmlns="http://www.w3.org/2000/svg">
<path d="M10.166 26C10.8291 26 11.4649 26.2634 11.9338 26.7322C12.4026 27.2011 12.666 27.837 12.666 28.5C12.666 29.163 12.4026 29.7989 11.9338 30.2678C11.4649 30.7366 10.8291 31 10.166 31C9.50297 31 8.86709 30.7366 8.39825 30.2678C7.92941 29.7989 7.66602 29.163 7.66602 28.5C7.66602 27.837 7.92941 27.2011 8.39825 26.7322C8.86709 26.2634 9.50297 26 10.166 26ZM25.166 26C25.8291 26 26.4649 26.2634 26.9338 26.7322C27.4026 27.2011 27.666 27.837 27.666 28.5C27.666 29.163 27.4026 29.7989 26.9338 30.2678C26.4649 30.7366 25.8291 31 25.166 31C24.503 31 23.8671 30.7366 23.3982 30.2678C22.9294 29.7989 22.666 29.163 22.666 28.5C22.666 27.837 22.9294 27.2011 23.3982 26.7322C23.8671 26.2634 24.503 26 25.166 26Z" stroke="black" stroke-width="2"/>
<path d="M1 1L1.435 1.15333C3.605 1.915 4.69 2.29667 5.31 3.205C5.93 4.11333 5.93 5.31833 5.93 7.73V12.2667C5.93 17.17 6.035 18.7867 7.48 20.31C8.92333 21.8333 11.2467 21.8333 15.8967 21.8333H17.6667M24.7333 21.8333C27.335 21.8333 28.6367 21.8333 29.5567 21.0833C30.475 20.3333 30.7383 19.06 31.2633 16.5117L32.0967 12.4717C32.675 9.57167 32.9633 8.12333 32.2233 7.16167C31.485 6.2 28.9567 6.2 26.1483 6.2H16.04M5.93 6.2H9.33333" stroke="black" stroke-width="2" stroke-linecap="round"/>
</svg>
