<svg width="58" height="56" viewBox="0 0 58 56" fill="none" xmlns="http://www.w3.org/2000/svg">
<path d="M26.23 2.65979C27.2548 0.195911 30.7452 0.195907 31.77 2.65978L37.5539 16.5661C37.9859 17.6048 38.9628 18.3145 40.0841 18.4044L55.0972 19.608C57.7571 19.8213 58.8357 23.1408 56.8091 24.8768L45.3708 34.6749C44.5164 35.4068 44.1433 36.5551 44.4043 37.6494L47.8989 52.2996C48.5181 54.8952 45.6943 56.9468 43.417 55.5559L30.5638 47.7051C29.6037 47.1187 28.3963 47.1187 27.4362 47.7051L14.583 55.5559C12.3057 56.9468 9.48193 54.8952 10.1011 52.2996L13.5957 37.6494C13.8567 36.5551 13.4836 35.4068 12.6292 34.6749L1.19089 24.8768C-0.83572 23.1408 0.242855 19.8213 2.90282 19.608L17.9159 18.4044C19.0372 18.3145 20.0141 17.6048 20.4461 16.5661L26.23 2.65979Z" fill="#8A8A8A"/>
</svg>
