<svg width="26" height="27" viewBox="0 0 26 27" fill="none" xmlns="http://www.w3.org/2000/svg">
<path d="M23.9549 14.277C23.1742 10.4944 22.7852 8.60246 21.3039 7.48499C19.8265 6.36753 17.711 6.36753 13.4814 6.36753H12.5196C8.28997 6.36753 6.17449 6.36753 4.69446 7.48499C3.21443 8.60246 2.82544 10.4944 2.04479 14.277C0.949751 19.5965 0.4009 22.2556 1.9995 24.0082C3.59809 25.7607 6.57015 25.7595 12.5183 25.7595H13.4801C19.4282 25.7595 22.4029 25.7595 24.0002 24.0082C24.9274 22.9901 25.1325 21.669 24.9274 19.6995M9.00268 6.36753V5.15553C9.00268 4.1912 9.42373 3.26637 10.1732 2.58449C10.9227 1.90261 11.9392 1.51953 12.9992 1.51953C14.0591 1.51953 15.0756 1.90261 15.8251 2.58449C16.5746 3.26637 16.9957 4.1912 16.9957 5.15553V6.36753" stroke="white" stroke-width="2" stroke-linecap="round"/>
</svg>
