<svg width="17" height="17" viewBox="0 0 17 17" fill="none" xmlns="http://www.w3.org/2000/svg">
<path d="M16.179 2.51238C16.3175 2.37871 16.428 2.21879 16.5041 2.04195C16.5801 1.8651 16.6202 1.67488 16.622 1.48239C16.6238 1.28989 16.5872 1.09896 16.5143 0.920758C16.4415 0.742552 16.334 0.580631 16.1979 0.444444C16.0618 0.308256 15.9 0.20053 15.7219 0.12755C15.5438 0.0545697 15.3529 0.0177981 15.1604 0.0193795C14.9679 0.0209609 14.7776 0.060864 14.6007 0.136761C14.4238 0.212658 14.2637 0.323028 14.1299 0.461432L8.31923 6.27021L2.51045 0.461432C2.37773 0.318993 2.21767 0.204746 2.03983 0.125507C1.86199 0.0462682 1.67002 0.00366022 1.47535 0.000225624C1.28069 -0.00320897 1.08733 0.0326003 0.906809 0.105516C0.726286 0.178433 0.562299 0.286962 0.424631 0.424631C0.286962 0.562299 0.178433 0.726285 0.105517 0.906808C0.0326003 1.08733 -0.00320897 1.28069 0.000225624 1.47535C0.00366022 1.67002 0.0462683 1.86199 0.125507 2.03983C0.204746 2.21767 0.318993 2.37773 0.461432 2.51045L6.26635 8.32116L0.457567 14.1299C0.201478 14.4048 0.0620604 14.7683 0.0686873 15.1439C0.0753141 15.5195 0.227468 15.8778 0.493093 16.1434C0.758717 16.4091 1.11707 16.5612 1.49266 16.5678C1.86826 16.5745 2.23176 16.4351 2.50659 16.179L8.31923 10.3702L14.128 16.1809C14.4028 16.437 14.7663 16.5764 15.1419 16.5698C15.5175 16.5631 15.8759 16.411 16.1415 16.1454C16.4071 15.8797 16.5593 15.5214 16.5659 15.1458C16.5725 14.7702 16.4331 14.4067 16.177 14.1319L10.3721 8.32116L16.179 2.51238Z" fill="#52459F"/>
</svg>
