<svg width="31" height="26" viewBox="0 0 31 26" fill="none" xmlns="http://www.w3.org/2000/svg">
<path d="M25.2895 17.55C24.1474 17.55 23.3316 16.575 23.3316 15.6C23.3316 14.4625 24.3105 13.65 25.2895 13.65C26.2684 13.65 27.2474 14.625 27.2474 15.6C27.4105 16.575 26.4316 17.55 25.2895 17.55ZM25.2895 9.75C22.1895 9.75 19.5789 12.35 19.5789 15.4375C19.5789 19.6625 25.2895 26 25.2895 26C25.2895 26 31 19.6625 31 15.4375C31 12.35 28.3895 9.75 25.2895 9.75ZM19.4158 8.6125C18.9263 6.5 16.9684 4.875 14.6842 4.875C11.9105 4.875 9.78947 6.9875 9.78947 9.75C9.78947 12.5125 11.9105 14.625 14.6842 14.625C15.3368 14.625 15.8263 14.4625 16.3158 14.3C16.6421 12.025 17.7842 10.075 19.4158 8.6125ZM16.3158 16.25H6.52632C6.52632 15.388 6.18252 14.5614 5.57056 13.9519C4.9586 13.3424 4.1286 13 3.26316 13V6.5C4.1286 6.5 4.9586 6.15759 5.57056 5.5481C6.18252 4.9386 6.52632 4.11195 6.52632 3.25H22.8421C22.8421 4.11195 23.1859 4.9386 23.7979 5.5481C24.4098 6.15759 25.2398 6.5 26.1053 6.5C26.1053 6.5 27.7368 6.5 29.3684 7.475V0H0V19.5H17.1316C16.8053 18.3625 16.4789 17.3875 16.3158 16.25Z" fill="black"/>
</svg>
