<svg width="23" height="23" viewBox="0 0 23 23" fill="none" xmlns="http://www.w3.org/2000/svg">
<path d="M20.403 5.6675H19.6095C19.8691 5.13816 20.0051 4.55667 20.0074 3.96725C20.0074 2.91507 19.5894 1.90598 18.8454 1.16198C18.1014 0.417977 17.0923 0 16.0402 0C14.0939 0 12.396 1.3602 11.131 2.81221C9.5214 0.954407 7.87669 0 6.23425 0C5.18207 0 4.17298 0.417977 3.42898 1.16198C2.68498 1.90598 2.267 2.91507 2.267 3.96725C2.2704 4.55667 2.40642 5.13816 2.66486 5.6675H2.267C1.66575 5.6675 1.08913 5.90634 0.663989 6.33149C0.238844 6.75663 0 7.33325 0 7.9345V10.2015C0 10.5021 0.119422 10.7904 0.331994 11.003C0.544567 11.2156 0.832877 11.335 1.1335 11.335H21.5365C21.8371 11.335 22.1254 11.2156 22.338 11.003C22.5506 10.7904 22.67 10.5021 22.67 10.2015V7.9345C22.67 7.33325 22.4312 6.75663 22.006 6.33149C21.5809 5.90634 21.0042 5.6675 20.403 5.6675ZM9.13374 5.6675H6.23425C5.78332 5.6675 5.35085 5.48837 5.03199 5.16951C4.71313 4.85065 4.534 4.41818 4.534 3.96725C4.534 3.51632 4.71313 3.08385 5.03199 2.76499C5.35085 2.44613 5.78332 2.267 6.23425 2.267C7.2544 2.267 8.50125 3.12166 9.73903 4.67229C9.4908 5.05428 9.2947 5.39206 9.13374 5.6675ZM16.0481 5.6675H11.8065C12.8641 4.11687 14.4941 2.267 16.0447 2.267C16.4956 2.267 16.9281 2.44613 17.247 2.76499C17.5658 3.08385 17.7449 3.51632 17.7449 3.96725C17.7449 4.41818 17.5658 4.85065 17.247 5.16951C16.9281 5.48837 16.4956 5.6675 16.0447 5.6675H16.0481ZM12.4685 13.602H10.2015V22.67H12.4685V13.602ZM7.9345 13.602H2.267V20.403C2.267 21.0042 2.50584 21.5809 2.93099 22.006C3.35613 22.4312 3.93275 22.67 4.534 22.67H7.9345V13.602ZM14.7355 13.602V22.67H18.136C18.7372 22.67 19.3139 22.4312 19.739 22.006C20.1642 21.5809 20.403 21.0042 20.403 20.403V13.602H14.7355Z" fill="#989898"/>
</svg>
