<svg width="33" height="20" viewBox="0 0 33 20" fill="none" xmlns="http://www.w3.org/2000/svg">
<g clip-path="url(#clip0_2711_6)">
<path d="M14.3942 -0.000228882C14.3942 0.462271 14.4309 0.849771 14.3776 1.22394C14.3551 1.3831 14.1692 1.55394 14.0167 1.64977C13.2776 2.11894 12.4751 2.49394 11.7859 3.03227C9.5559 4.7756 8.23424 7.0706 8.16174 10.0523C8.14174 10.8981 8.4534 11.1106 9.1634 10.7798C11.2159 9.8281 13.4234 10.3864 14.6009 12.1548C15.8851 14.0848 15.7042 16.6548 14.1651 18.3398C12.2001 20.4914 8.96507 20.5564 6.73424 18.4998C5.3984 17.2681 4.7634 15.6781 4.60507 13.8689C4.07424 7.80977 7.1134 2.81477 12.6459 0.620605C13.1934 0.403938 13.7542 0.225605 14.3942 -0.000228882Z" fill="#7B7B7B"/>
</g>
<g clip-path="url(#clip1_2711_6)">
<path d="M27.3942 -0.000228882C27.3942 0.462271 27.4309 0.849771 27.3776 1.22394C27.3551 1.3831 27.1692 1.55394 27.0167 1.64977C26.2776 2.11894 25.4751 2.49394 24.7859 3.03227C22.5559 4.7756 21.2342 7.0706 21.1617 10.0523C21.1417 10.8981 21.4534 11.1106 22.1634 10.7798C24.2159 9.8281 26.4234 10.3864 27.6009 12.1548C28.8851 14.0848 28.7042 16.6548 27.1651 18.3398C25.2001 20.4914 21.9651 20.5564 19.7342 18.4998C18.3984 17.2681 17.7634 15.6781 17.6051 13.8689C17.0742 7.80977 20.1134 2.81477 25.6459 0.620605C26.1934 0.403938 26.7542 0.225605 27.3942 -0.000228882Z" fill="#7B7B7B"/>
</g>
<defs>
<clipPath id="clip0_2711_6">
<rect width="20" height="20" fill="white" transform="matrix(-1 0 0 -1 20 20)"/>
</clipPath>
<clipPath id="clip1_2711_6">
<rect width="20" height="20" fill="white" transform="matrix(-1 0 0 -1 33 20)"/>
</clipPath>
</defs>
</svg>
