<svg width="25" height="14" viewBox="0 0 25 14" fill="none" xmlns="http://www.w3.org/2000/svg">
<path d="M16.6678 11.1086C15.8996 11.1086 15.279 11.7292 15.279 12.4973C15.279 13.2654 15.8996 13.886 16.6678 13.886H23.6113C24.3794 13.886 25 13.2654 25 12.4973V5.55375C25 4.78562 24.3794 4.16504 23.6113 4.16504C22.8432 4.16504 22.2226 4.78562 22.2226 5.55375V9.14269L14.8711 1.79556C14.3286 1.25309 13.4477 1.25309 12.9052 1.79556L8.3355 6.36527L2.37274 0.406848C1.83027 -0.135616 0.949312 -0.135616 0.406848 0.406848C-0.135616 0.949312 -0.135616 1.83027 0.406848 2.37274L7.35039 9.31628C7.89285 9.85874 8.77381 9.85874 9.31628 9.31628L13.8903 4.74222L20.2567 11.1086H16.6678Z" fill="#52459F"/>
</svg>
