<svg width="58" height="58" viewBox="0 0 58 58" fill="none" xmlns="http://www.w3.org/2000/svg">
<path d="M26.1301 54.4902C26.9565 56.3846 29.1501 59.0366 31.3136 54.4902" stroke="black" stroke-width="2"/>
<path d="M11.031 50.5364C12.3081 49.1362 15.944 46.6819 20.2711 48.0655" stroke="black" stroke-width="2"/>
<path d="M14.8643 54.7349C15.5404 53.4171 17.7039 50.8804 20.9492 51.2757" stroke="black" stroke-width="2"/>
<path d="M46.6404 50.0422C45.3633 48.6421 41.7274 46.1877 37.4003 47.5714" stroke="black" stroke-width="2"/>
<path d="M42.8071 54.2427C42.131 52.9249 39.9675 50.3882 36.7222 50.7835" stroke="black" stroke-width="2"/>
<path d="M22.7488 42.8754C23.2746 41.64 24.6869 39.9104 26.1293 42.8754" stroke="black" stroke-width="2"/>
<path d="M31.3113 42.8754C31.8371 41.64 33.2494 39.9104 34.6918 42.8754" stroke="black" stroke-width="2"/>
<path d="M26.8042 45.3477C27.4052 46.4184 29.1029 47.9173 31.0862 45.3477" stroke="black" stroke-width="2"/>
<path d="M28.8376 51.2776V46.8301" stroke="black" stroke-width="2"/>
<path d="M31.5374 29.2882C32.6642 23.3581 35.9546 11.844 40.1013 13.2276C45.2848 14.9572 36.2701 32.7469 35.594 32.7469" stroke="black" stroke-width="2"/>
<path d="M26.1309 29.0388C25.0041 23.6853 21.7588 13.0277 17.7923 13.2254C17.0411 13.3078 15.6739 14.3621 16.2147 17.9202" stroke="black" stroke-width="2"/>
<path d="M16.438 20.1445C17.039 23.1919 18.9621 29.8303 21.8468 32.0046" stroke="black" stroke-width="2"/>
<path d="M50.0193 37.9355C47.5403 41.0653 42.5371 47.3248 41.4553 47.3248" stroke="black" stroke-width="2"/>
<path d="M16.44 47.8184C9.22823 41.3118 -3.61773 24.6418 2.69257 10.0144C10.5804 -8.26992 26.3556 6.3081 28.3839 10.0144C32.2539 3.9064 47.8106 -6.59004 55.2027 10.0144C56.9305 13.7207 58.9438 23.4558 53.1744 32.7462" stroke="black" stroke-width="2"/>
<path d="M28.8319 51.0333C27.033 58.1988 13.7366 56.2221 17.3382 45.3503C17.7929 43.9776 19.3705 42.0888 19.3705 40.9028C19.3705 39.4203 19.8172 28.5461 28.6106 28.7932" stroke="black" stroke-width="2"/>
<path d="M28.8329 51.2777C30.4103 58.196 43.0302 56.0663 39.481 45.3503C39.0263 43.9776 37.4486 42.0888 37.4486 40.9028C37.4486 39.4203 37.0019 28.5461 28.2086 28.7932" stroke="black" stroke-width="2"/>
<ellipse cx="51.5007" cy="35.5945" rx="1" ry="1.00275" fill="black"/>
<ellipse cx="48.7544" cy="8.92072" rx="1" ry="1.00275" fill="black"/>
<ellipse cx="44.7537" cy="5.91095" rx="1" ry="1.00275" fill="black"/>
</svg>
