<svg width="30" height="30" viewBox="0 0 30 30" fill="none" xmlns="http://www.w3.org/2000/svg">
<path fill-rule="evenodd" clip-rule="evenodd" d="M9.47757 18.9344C15.2548 24.2627 20.6083 24.8461 22.18 24.9002C24.0792 24.9639 26.0174 23.5338 26.8558 22.069C25.5186 20.6223 23.7771 19.4998 21.8704 18.2831C20.745 19.3197 19.3582 21.2459 17.5116 20.5558C16.4613 20.1664 13.868 19.0647 11.6021 16.9735C9.33633 14.8824 8.14182 12.492 7.71661 11.5247C6.96835 9.81881 9.06287 8.53697 10.1883 7.49903C8.86905 5.71138 7.67303 4.0637 6.1074 2.89272C4.49668 3.66875 2.93706 5.44254 3.00768 7.21771C3.06628 8.66723 3.69884 13.6047 9.47757 18.9344ZM22.0688 27.6703C19.9051 27.5969 13.7733 26.8153 7.35149 20.8939C0.931181 14.9711 0.0852565 9.31716 0.00411993 7.32026C-0.116082 4.27711 2.41117 1.32126 5.33059 0.166908C5.68215 0.0268992 6.06713 -0.0264064 6.44776 0.0122219C6.8284 0.0508503 7.19161 0.180085 7.50174 0.387246C9.91781 2.01276 11.5841 4.47527 13.016 6.40427C13.3139 6.80538 13.4504 7.28992 13.4018 7.77402C13.3532 8.25813 13.1227 8.71135 12.7501 9.05525L10.7127 10.9357C11.1859 11.8989 12.1491 13.559 13.7267 15.0141C15.3044 16.4691 17.1044 17.3574 18.1502 17.7939L20.1861 15.9148C20.5599 15.5697 21.0535 15.3569 21.5804 15.3135C22.1072 15.2702 22.6338 15.3992 23.068 15.6778C25.2015 17.0414 27.7078 18.5561 29.5348 20.7137C29.7777 21.0019 29.9322 21.3448 29.9821 21.7068C30.0321 22.0688 29.9757 22.4366 29.8188 22.7716C28.5612 25.478 25.3788 27.7826 22.0688 27.6703Z" fill="white"/>
</svg>
