<svg width="21" height="23" viewBox="0 0 21 23" fill="none" xmlns="http://www.w3.org/2000/svg">
<path d="M7.24216 3.20452C7.46961 2.5599 7.89141 2.0017 8.44942 1.60687C9.00743 1.21203 9.67417 1 10.3577 1C11.0413 1 11.708 1.21203 12.2661 1.60687C12.8241 2.0017 13.2459 2.5599 13.4733 3.20452M19.7155 5.40634H1M17.3749 15.7549C17.1801 18.6767 17.0821 20.1376 16.1298 21.0283C15.1775 21.9189 13.7133 21.92 10.7838 21.92H9.93169C7.00326 21.92 5.53905 21.92 4.58566 21.0283C3.63338 20.1376 3.5365 18.6767 3.34164 15.7549L2.83522 8.15862M17.8803 8.15862L17.6601 11.4613M7.60546 10.9109L8.15592 16.4154M13.11 10.9109L12.5596 16.4154" stroke="black" stroke-width="1.5" stroke-linecap="round"/>
</svg>
