<svg width="33" height="25" viewBox="0 0 33 25" fill="none" xmlns="http://www.w3.org/2000/svg">
<path d="M16 1H23.453C25.6048 1 26.6793 1 27.5542 1.54541C28.4306 2.08928 28.9405 3.07688 29.9602 5.05207L31 8.5L32 11.5" stroke="black" stroke-width="2" stroke-linecap="round" stroke-linejoin="round"/>
<path d="M3.09609 20.679C2.77522 20.679 3.20268 20.679 3.09609 20.679C2.32087 20.679 2.24129 19.6308 2.16043 18.0037L3.09609 20.679ZM3.09609 20.679C3.09609 20.679 30.4683 21.4013 31.199 20.679C32.2951 19.5918 31.9477 17.8446 31.9477 14.3487V11.3823H24.91C23.7944 11.3823 23.2374 11.3823 22.7867 11.237C22.3373 11.0923 21.9288 10.8444 21.5946 10.5134C21.2605 10.1824 21.0101 9.77774 20.8641 9.33256C20.7173 8.88612 20.7173 8.33438 20.7173 7.2294C20.7173 5.57268 20.7173 4.74506 20.4972 4.07465C20.2781 3.40688 19.9026 2.79995 19.4014 2.30346C18.9001 1.80697 18.2874 1.43502 17.6132 1.21803C16.9364 1 16.1009 1 14.4283 1H2" fill="black"/>
<path d="M3.09609 20.679C2.77522 20.679 3.20268 20.679 3.09609 20.679ZM3.09609 20.679C2.32087 20.679 2.24129 19.6308 2.16043 18.0037L2 1H14.4283C16.1009 1 16.9364 1 17.6132 1.21803C18.2874 1.43502 18.9001 1.80697 19.4014 2.30346C19.9026 2.79995 20.2781 3.40688 20.4972 4.07465C20.7173 4.74506 20.7173 5.57268 20.7173 7.2294C20.7173 8.33438 20.7173 8.88612 20.8641 9.33256C21.0101 9.77774 21.2604 10.1824 21.5946 10.5134C21.9288 10.8444 22.3373 11.0923 22.7867 11.237C23.2374 11.3823 23.7944 11.3823 24.91 11.3823H31.9477V14.3487C31.9477 17.8446 32.2951 19.5918 31.199 20.679C30.4683 21.4013 3.09609 20.679 3.09609 20.679Z" stroke="black" stroke-width="2" stroke-linecap="round" stroke-linejoin="round"/>
<path d="M1 5.55078H7.08636M1 10.3095H5.05757" stroke="#C4C4C4" stroke-width="2" stroke-linecap="round" stroke-linejoin="round"/>
<path d="M24.5574 24.0007C26.1898 24.0007 27.5132 22.6211 27.5132 20.9193C27.5132 19.2175 26.1898 17.8379 24.5574 17.8379C22.9249 17.8379 21.6016 19.2175 21.6016 20.9193C21.6016 22.6211 22.9249 24.0007 24.5574 24.0007Z" fill="#C4C4C4" stroke="black" stroke-width="2" stroke-linecap="round" stroke-linejoin="round"/>
<path d="M9.78003 24.0007C11.4125 24.0007 12.7358 22.6211 12.7358 20.9193C12.7358 19.2175 11.4125 17.8379 9.78003 17.8379C8.14758 17.8379 6.82422 19.2175 6.82422 20.9193C6.82422 22.6211 8.14758 24.0007 9.78003 24.0007Z" fill="#C4C4C4" stroke="black" stroke-width="2" stroke-linecap="round" stroke-linejoin="round"/>
</svg>
