<svg width="24" height="58" viewBox="0 0 24 58" fill="none" xmlns="http://www.w3.org/2000/svg">
<path d="M12.5504 38.5616C22.9802 31.2852 17.2025 21.8755 11.6404 18.2481M12.5504 38.5616C10.93 39.6921 9.52691 40.8167 8.31817 41.9213M12.5504 38.5616C3.1195 31.1859 5.5371 22.3591 13.2756 16.7971C21.0141 11.2351 22.9487 6.03577 22.9487 4.82663C22.9487 3.6175 22.4653 1.19922 20.0468 1.19922C18.1119 1.19922 17.1447 3.6175 16.903 4.82663C16.5887 6.39851 11.4215 12.6457 7.95543 15.2252C-4.81307 25.4787 2.87705 37.2949 8.31817 41.9213M22.9487 31.5C22.9487 36.5 19.3215 39.408 15.4523 42.7936C10.6157 47.0256 7.59289 51.1366 6.74649 54.5222C6.06938 57.2307 3.96549 57.7869 2.15185 55.8523C0.926806 53.3005 1.76991 47.9052 8.31817 41.9213M22.9487 26.5C22.4653 22 19.2248 16.918 15.4523 14.9834" stroke="black" stroke-width="2"/>
<path d="M8.49652 14.6207C6.5619 12.6054 2.52338 7.97042 1.84626 5.55214C1.16914 3.13386 2.53144 1.64259 3.29722 1.19924C3.90185 0.836499 5.44965 0.715585 6.80381 3.13386C8.49652 6.15671 8.85935 8.45415 12.0031 10.8724M15.9933 42.1891C18.4518 44.4059 23.2239 49.7341 22.6435 53.3132C22.0631 56.8922 19.4192 56.336 18.1697 55.6105C17.807 55.2478 17.0331 54.1112 16.8397 52.4668C16.6462 50.8224 13.5347 47.5093 12.0031 46.0584" stroke="black" stroke-width="2"/>
<path d="M7.6503 4.46387H16.7188M7.6503 52.2248H16.7188M7.16665 23.931H16.8398M6.44116 28.7676H18.2907M7.89213 33.3623H17.2025" stroke="black" stroke-width="2"/>
<circle cx="23" cy="29" r="1" fill="black"/>
</svg>
