<svg width="27" height="30" viewBox="0 0 27 30" fill="none" xmlns="http://www.w3.org/2000/svg">
<path fill-rule="evenodd" clip-rule="evenodd" d="M15.0763 0.514341L24.5237 6.09484C25.0942 6.43179 25.5679 6.91641 25.8972 7.50001C26.2266 8.0836 26.4 8.74561 26.4 9.4195V20.5805C26.4 21.2544 26.2266 21.9164 25.8972 22.5C25.5679 23.0836 25.0942 23.5682 24.5237 23.9052L15.0763 29.4857C14.5058 29.8226 13.8587 30 13.2 30C12.5413 30 11.8942 29.8226 11.3237 29.4857L1.87628 23.9052C1.30583 23.5682 0.832126 23.0836 0.502771 22.5C0.173416 21.9164 1.67335e-05 21.2544 0 20.5805V9.4195C1.67335e-05 8.74561 0.173416 8.0836 0.502771 7.50001C0.832126 6.91641 1.30583 6.43179 1.87628 6.09484L11.3237 0.514341C11.8942 0.17739 12.5413 0 13.2 0C13.8587 0 14.5058 0.17739 15.0763 0.514341ZM3.00205 10.7494V20.5805C3.00205 20.7153 3.03673 20.8477 3.1026 20.9644C3.16847 21.0811 3.26321 21.178 3.3773 21.2454L11.699 26.1595V15.86L3.00205 10.7494ZM23.3979 10.7494L14.701 15.86V26.1625L23.0227 21.247C23.1173 21.191 23.1988 21.1146 23.2615 21.0231C23.3243 20.9316 23.3667 20.8272 23.3859 20.7172L23.3979 20.582V10.7494ZM12.8247 3.1756L4.50307 8.08964L12.8247 13.0052C12.9388 13.0726 13.0683 13.1081 13.2 13.1081C13.3317 13.1081 13.4612 13.0726 13.5752 13.0052L21.8969 8.08964L13.5752 3.17406C13.4612 3.10667 13.3317 3.0712 13.2 3.0712C13.0683 3.0712 12.9388 3.10667 12.8247 3.17406V3.1756Z" fill="white"/>
</svg>
