<svg width="20" height="20" viewBox="0 0 20 20" fill="none" xmlns="http://www.w3.org/2000/svg">
<g clip-path="url(#clip0_2613_1310)">
<path d="M18.2265 0.754883H1.77495C1.21145 0.754883 0.754639 1.21169 0.754639 1.7752V18.2268C0.754639 18.7903 1.21145 19.2471 1.77495 19.2471H18.2265C18.79 19.2471 19.2468 18.7903 19.2468 18.2268V1.7752C19.2468 1.21169 18.79 0.754883 18.2265 0.754883Z" fill="#3D5A98"/>
<path d="M13.5125 19.2456V12.0846H15.9157L16.275 9.29401H13.5125V7.51276C13.5125 6.70495 13.7375 6.15338 14.8954 6.15338H16.3735V3.65338C15.6577 3.57892 14.9384 3.54345 14.2188 3.54713C12.0907 3.54713 10.625 4.84401 10.625 7.2362V9.29401H8.22192V12.0846H10.625V19.2456H13.5125Z" fill="white"/>
</g>
<defs>
<clipPath id="clip0_2613_1310">
<rect width="20" height="20" fill="white"/>
</clipPath>
</defs>
</svg>
