<svg width="24" height="27" viewBox="0 0 24 27" fill="none" xmlns="http://www.w3.org/2000/svg">
<path d="M7.5 3.00368C7.10218 3.00368 6.72064 3.16171 6.43934 3.44302C6.15804 3.72432 6 4.10585 6 4.50368C6 4.9015 6.15804 5.28303 6.43934 5.56434C6.72064 5.84564 7.10218 6.00368 7.5 6.00368C7.89782 6.00368 8.27936 5.84564 8.56066 5.56434C8.84196 5.28303 9 4.9015 9 4.50368C9 4.10585 8.84196 3.72432 8.56066 3.44302C8.27936 3.16171 7.89782 3.00368 7.5 3.00368ZM3.255 3.00368C3.5649 2.12538 4.13961 1.36483 4.8999 0.82686C5.66019 0.288894 6.56863 0 7.5 0C8.43137 0 9.33981 0.288894 10.1001 0.82686C10.8604 1.36483 11.4351 2.12538 11.745 3.00368H22.5C22.8978 3.00368 23.2794 3.16171 23.5607 3.44302C23.842 3.72432 24 4.10585 24 4.50368C24 4.9015 23.842 5.28303 23.5607 5.56434C23.2794 5.84564 22.8978 6.00368 22.5 6.00368H11.745C11.4351 6.88198 10.8604 7.64253 10.1001 8.18049C9.33981 8.71846 8.43137 9.00735 7.5 9.00735C6.56863 9.00735 5.66019 8.71846 4.8999 8.18049C4.13961 7.64253 3.5649 6.88198 3.255 6.00368H1.5C1.10218 6.00368 0.720645 5.84564 0.43934 5.56434C0.158036 5.28303 0 4.9015 0 4.50368C0 4.10585 0.158036 3.72432 0.43934 3.44302C0.720645 3.16171 1.10218 3.00368 1.5 3.00368H3.255ZM16.5 12.0037C16.1022 12.0037 15.7206 12.1617 15.4393 12.443C15.158 12.7243 15 13.1059 15 13.5037C15 13.9015 15.158 14.283 15.4393 14.5643C15.7206 14.8456 16.1022 15.0037 16.5 15.0037C16.8978 15.0037 17.2794 14.8456 17.5607 14.5643C17.842 14.283 18 13.9015 18 13.5037C18 13.1059 17.842 12.7243 17.5607 12.443C17.2794 12.1617 16.8978 12.0037 16.5 12.0037ZM12.255 12.0037C12.5649 11.1254 13.1396 10.3648 13.8999 9.82686C14.6602 9.2889 15.5686 9 16.5 9C17.4314 9 18.3398 9.2889 19.1001 9.82686C19.8604 10.3648 20.4351 11.1254 20.745 12.0037H22.5C22.8978 12.0037 23.2794 12.1617 23.5607 12.443C23.842 12.7243 24 13.1059 24 13.5037C24 13.9015 23.842 14.283 23.5607 14.5643C23.2794 14.8456 22.8978 15.0037 22.5 15.0037H20.745C20.4351 15.882 19.8604 16.6425 19.1001 17.1805C18.3398 17.7185 17.4314 18.0074 16.5 18.0074C15.5686 18.0074 14.6602 17.7185 13.8999 17.1805C13.1396 16.6425 12.5649 15.882 12.255 15.0037H1.5C1.10218 15.0037 0.720645 14.8456 0.43934 14.5643C0.158036 14.283 0 13.9015 0 13.5037C0 13.1059 0.158036 12.7243 0.43934 12.443C0.720645 12.1617 1.10218 12.0037 1.5 12.0037H12.255ZM7.5 21.0037C7.10218 21.0037 6.72064 21.1617 6.43934 21.443C6.15804 21.7243 6 22.1059 6 22.5037C6 22.9015 6.15804 23.283 6.43934 23.5643C6.72064 23.8456 7.10218 24.0037 7.5 24.0037C7.89782 24.0037 8.27936 23.8456 8.56066 23.5643C8.84196 23.283 9 22.9015 9 22.5037C9 22.1059 8.84196 21.7243 8.56066 21.443C8.27936 21.1617 7.89782 21.0037 7.5 21.0037ZM3.255 21.0037C3.5649 20.1254 4.13961 19.3648 4.8999 18.8269C5.66019 18.2889 6.56863 18 7.5 18C8.43137 18 9.33981 18.2889 10.1001 18.8269C10.8604 19.3648 11.4351 20.1254 11.745 21.0037H22.5C22.8978 21.0037 23.2794 21.1617 23.5607 21.443C23.842 21.7243 24 22.1059 24 22.5037C24 22.9015 23.842 23.283 23.5607 23.5643C23.2794 23.8456 22.8978 24.0037 22.5 24.0037H11.745C11.4351 24.882 10.8604 25.6425 10.1001 26.1805C9.33981 26.7185 8.43137 27.0074 7.5 27.0074C6.56863 27.0074 5.66019 26.7185 4.8999 26.1805C4.13961 25.6425 3.5649 24.882 3.255 24.0037H1.5C1.10218 24.0037 0.720645 23.8456 0.43934 23.5643C0.158036 23.283 0 22.9015 0 22.5037C0 22.1059 0.158036 21.7243 0.43934 21.443C0.720645 21.1617 1.10218 21.0037 1.5 21.0037H3.255Z" fill="#2B2B2B"/>
</svg>
