<svg width="71" height="28" viewBox="0 0 71 28" fill="none" xmlns="http://www.w3.org/2000/svg">
<path d="M49.8413 7.56179C51.7746 7.56179 53.2686 8.08909 54.4111 9.14369C55.5534 10.1982 56.0806 11.6042 56.0806 13.3618V21.7981H53.62V19.865H53.5321C52.4777 21.4469 50.9837 22.2378 49.2261 22.2378C47.7321 22.2378 46.4139 21.7982 45.3595 20.9196C44.3928 20.0408 43.7775 18.8105 43.7775 17.4923C43.7775 16.0862 44.3048 14.9437 45.3595 14.0649C46.4139 13.1862 47.9079 12.8347 49.6655 12.8347C51.2473 12.8347 52.4777 13.0984 53.4442 13.7135V13.0984C53.4442 12.2781 53.1381 11.458 52.5256 10.9235L52.3896 10.8135C51.6867 10.1983 50.8079 9.84681 49.8413 9.84681C48.3474 9.84681 47.2049 10.462 46.4139 11.6923L44.1292 10.2859C45.5351 8.44044 47.3806 7.56179 49.8413 7.56179ZM37.4503 1.58594C39.0272 1.58594 40.5257 2.13467 41.7238 3.15795L41.9322 3.34338C43.1625 4.39798 43.7775 5.97989 43.7775 7.64956C43.7775 9.31923 43.1625 10.8132 41.9322 11.9556C40.7019 13.098 39.2079 13.7132 37.4503 13.7132L33.2322 13.6253V21.7981H30.5957V1.58594H37.4503ZM50.1927 14.9436C49.1381 14.9436 48.2594 15.2072 47.5564 15.7345C46.8534 16.1738 46.5018 16.7889 46.5018 17.5798C46.5018 18.2829 46.8534 18.898 47.3806 19.2496C47.9958 19.689 48.6988 19.9526 49.4019 19.9526C50.386 19.9526 51.3703 19.5698 52.1402 18.8758L52.3019 18.7223C53.1807 17.9315 53.62 16.9648 53.62 15.9102C52.8292 15.2951 51.6867 14.9435 50.1928 14.9435M37.6263 4.04636H33.2323V11.0771H37.6263C38.5929 11.0771 39.5595 10.7256 40.1748 10.0226C41.5807 8.70444 41.5807 6.50746 40.2627 5.18914L40.1748 5.10123C39.4716 4.39826 38.5929 3.95886 37.6262 4.04677M70.317 8.00119L61.6171 27.9498H58.9807L62.2321 21.0074L56.52 8.08909H59.3322L63.4624 18.0194H63.5503L67.5928 8.08909H70.317V8.00119Z" fill="#5F6368"/>
<path d="M22.7678 11.8687C22.7678 11.0779 22.6799 10.287 22.592 9.49609H11.6074V13.9779H17.8467C17.5831 15.3839 16.7923 16.7021 15.562 17.4931V20.3931H19.3407C21.5377 18.3719 22.768 15.3839 22.768 11.8689" fill="#4285F4"/>
<path d="M11.606 23.2078C14.7695 23.2078 17.4059 22.1532 19.3393 20.3956L15.5605 17.4957C14.5059 18.1986 13.1878 18.638 11.606 18.638C8.618 18.638 5.98163 16.6169 5.10284 13.8047H1.23633V16.7925C3.25749 20.7471 7.21204 23.2078 11.606 23.2078Z" fill="#34A853"/>
<path d="M5.11887 13.8017C4.5917 12.3957 4.5917 10.8139 5.11887 9.31989V6.33203H1.25236C-0.417452 9.58361 -0.417452 13.4503 1.25236 16.7896L5.11887 13.8017Z" fill="#FBBC04"/>
<path d="M11.61 4.57448C13.2797 4.57448 14.8615 5.18969 16.0919 6.33206L19.4312 2.99271C17.322 1.05932 14.51 -0.0830523 11.6978 0.0047168C7.30384 0.0047168 3.26152 2.46541 1.32812 6.41996L5.19477 9.40782C5.98565 6.59564 8.62202 4.57448 11.61 4.57448Z" fill="#EA4335"/>
</svg>
