<svg width="40" height="40" viewBox="0 0 40 40" fill="none" xmlns="http://www.w3.org/2000/svg">
<circle cx="20" cy="20" r="20" fill="#1A1111"/>
<g clip-path="url(#clip0_113_50)">
<path d="M6.08325 11.7917H10.4166L13.3199 22.3921C13.419 22.7566 13.6903 23.084 14.0864 23.317C14.4825 23.55 14.9782 23.6738 15.4866 23.6667H26.0166C26.525 23.6738 27.0206 23.55 27.4167 23.317C27.8129 23.084 28.0842 22.7566 28.1832 22.3921L29.9166 15.75H11.4999M15.8333 27.625C15.8333 28.0622 15.3482 28.4167 14.7499 28.4167C14.1516 28.4167 13.6666 28.0622 13.6666 27.625C13.6666 27.1878 14.1516 26.8333 14.7499 26.8333C15.3482 26.8333 15.8333 27.1878 15.8333 27.625ZM27.7499 27.625C27.7499 28.0622 27.2649 28.4167 26.6666 28.4167C26.0683 28.4167 25.5833 28.0622 25.5833 27.625C25.5833 27.1878 26.0683 26.8333 26.6666 26.8333C27.2649 26.8333 27.7499 27.1878 27.7499 27.625Z" stroke="#F3F3F3" stroke-width="4" stroke-linecap="round" stroke-linejoin="round"/>
</g>
<defs>
<clipPath id="clip0_113_50">
<rect width="26" height="19" fill="white" transform="translate(5 11)"/>
</clipPath>
</defs>
</svg>
