<svg width="20" height="20" viewBox="0 0 20 20" fill="none" xmlns="http://www.w3.org/2000/svg">
<g clip-path="url(#clip0_2613_1307)">
<path d="M18.125 0.468822H1.875C1.5063 0.46507 1.15117 0.607735 0.887529 0.865514C0.623892 1.12329 0.473283 1.47513 0.46875 1.84382V18.1594C0.474103 18.5276 0.625072 18.8786 0.88862 19.1357C1.15217 19.3928 1.50683 19.5351 1.875 19.5313H18.125C18.4937 19.5342 18.8486 19.3911 19.1121 19.1332C19.3756 18.8752 19.5263 18.5235 19.5312 18.1548V1.83913C19.5247 1.47152 19.3733 1.12136 19.1099 0.864769C18.8466 0.608173 18.4927 0.465881 18.125 0.468822Z" fill="#0076B2"/>
<path d="M3.29067 7.61426H6.12036V16.7189H3.29067V7.61426ZM4.7063 3.08301C5.03085 3.08301 5.34811 3.17927 5.61794 3.35961C5.88778 3.53996 6.09806 3.79628 6.22219 4.09615C6.34632 4.39603 6.37872 4.72599 6.31528 5.04428C6.25185 5.36257 6.09544 5.6549 5.86584 5.88428C5.63624 6.11367 5.34376 6.2698 5.02541 6.33292C4.70706 6.39605 4.37713 6.36334 4.07738 6.23892C3.77762 6.11451 3.5215 5.90398 3.34141 5.63398C3.16132 5.36397 3.06537 5.04662 3.06567 4.72207C3.06609 4.28722 3.23912 3.87032 3.54675 3.56298C3.85439 3.25564 4.27145 3.08301 4.7063 3.08301ZM7.89536 7.61426H10.6079V8.86426H10.6454C11.0235 8.14863 11.9454 7.39395 13.3219 7.39395C16.1875 7.3877 16.7188 9.27363 16.7188 11.7189V16.7189H13.8891V12.2893C13.8891 11.2346 13.8704 9.87676 12.4188 9.87676C10.9672 9.87676 10.7204 11.0268 10.7204 12.2205V16.7189H7.89536V7.61426Z" fill="white"/>
</g>
<defs>
<clipPath id="clip0_2613_1307">
<rect width="20" height="20" fill="white"/>
</clipPath>
</defs>
</svg>
