<svg width="40" height="40" viewBox="0 0 40 40" fill="none" xmlns="http://www.w3.org/2000/svg">
<path d="M33.1913 18.509C33.2877 17.8998 33.3356 17.284 33.3347 16.6673C33.3347 13.1311 31.9299 9.73971 29.4294 7.23923C26.9289 4.73874 23.5375 3.33398 20.0013 3.33398C16.4651 3.33398 13.0737 4.73874 10.5732 7.23923C8.07273 9.73971 6.66797 13.1311 6.66797 16.6673C6.66797 24.989 15.8996 33.6556 18.9996 36.3323C19.2884 36.5495 19.64 36.6669 20.0013 36.6669C20.3626 36.6669 20.7142 36.5495 21.003 36.3323C21.4678 35.9303 21.9257 35.5202 22.3763 35.1023" stroke="black" stroke-width="2" stroke-linecap="round" stroke-linejoin="round"/>
<path d="M20 21.668C22.7614 21.668 25 19.4294 25 16.668C25 13.9065 22.7614 11.668 20 11.668C17.2386 11.668 15 13.9065 15 16.668C15 19.4294 17.2386 21.668 20 21.668Z" stroke="black" stroke-width="2" stroke-linecap="round" stroke-linejoin="round"/>
<path d="M26.668 30H36.668M31.668 25V35" stroke="black" stroke-width="2" stroke-linecap="round" stroke-linejoin="round"/>
</svg>
