<svg width="196" height="55" viewBox="0 0 196 55" fill="none" xmlns="http://www.w3.org/2000/svg">
<path d="M9.79 29L0.73 8H5.98L13.9 26.6H10.81L18.85 8H23.68L14.59 29H9.79ZM26.4702 29L35.8302 8H40.6302L50.0202 29H44.9202L37.2402 10.46H39.1602L31.4502 29H26.4702ZM31.1502 24.5L32.4402 20.81H43.2402L44.5602 24.5H31.1502ZM56.699 29V8H60.719L73.109 23.12H71.159V8H75.959V29H71.969L59.549 13.88H61.499V29H56.699ZM89.7775 29V11.96H83.0575V8H101.358V11.96H94.6375V29H89.7775ZM112.942 16.46H123.052V20.24H112.942V16.46ZM113.302 25.1H124.732V29H108.472V8H124.342V11.9H113.302V25.1ZM133.099 29V8H137.959V25.04H148.489V29H133.099ZM155.705 29V8H160.565V25.04H171.095V29H155.705ZM182.78 16.46H192.89V20.24H182.78V16.46ZM183.14 25.1H194.57V29H178.31V8H194.18V11.9H183.14V25.1Z" fill="black"/>
<path d="M54.575 51V40.5H58.67C59.59 40.5 60.375 40.645 61.025 40.935C61.675 41.225 62.175 41.645 62.525 42.195C62.875 42.745 63.05 43.4 63.05 44.16C63.05 44.92 62.875 45.575 62.525 46.125C62.175 46.665 61.675 47.085 61.025 47.385C60.375 47.675 59.59 47.82 58.67 47.82H55.4L56.075 47.115V51H54.575ZM56.075 47.265L55.4 46.515H58.625C59.585 46.515 60.31 46.31 60.8 45.9C61.3 45.49 61.55 44.91 61.55 44.16C61.55 43.41 61.3 42.83 60.8 42.42C60.31 42.01 59.585 41.805 58.625 41.805H55.4L56.075 41.055V47.265ZM68.8687 45.03H74.2687V46.305H68.8687V45.03ZM69.0037 49.695H75.1237V51H67.5037V40.5H74.9137V41.805H69.0037V49.695ZM79.8025 51V40.5H83.8975C84.8175 40.5 85.6025 40.645 86.2525 40.935C86.9025 41.225 87.4025 41.645 87.7525 42.195C88.1025 42.745 88.2775 43.4 88.2775 44.16C88.2775 44.92 88.1025 45.575 87.7525 46.125C87.4025 46.665 86.9025 47.08 86.2525 47.37C85.6025 47.66 84.8175 47.805 83.8975 47.805H80.6275L81.3025 47.115V51H79.8025ZM86.8225 51L84.1525 47.19H85.7575L88.4575 51H86.8225ZM81.3025 47.265L80.6275 46.53H83.8525C84.8125 46.53 85.5375 46.325 86.0275 45.915C86.5275 45.495 86.7775 44.91 86.7775 44.16C86.7775 43.41 86.5275 42.83 86.0275 42.42C85.5375 42.01 84.8125 41.805 83.8525 41.805H80.6275L81.3025 41.055V47.265ZM94.301 45.465H99.716V46.755H94.301V45.465ZM94.451 51H92.951V40.5H100.361V41.805H94.451V51ZM109.072 51.12C107.692 51.12 106.607 50.725 105.817 49.935C105.027 49.145 104.632 47.99 104.632 46.47V40.5H106.132V46.41C106.132 47.58 106.387 48.435 106.897 48.975C107.417 49.515 108.147 49.785 109.087 49.785C110.037 49.785 110.767 49.515 111.277 48.975C111.797 48.435 112.057 47.58 112.057 46.41V40.5H113.512V46.47C113.512 47.99 113.117 49.145 112.327 49.935C111.547 50.725 110.462 51.12 109.072 51.12ZM118.838 51V40.5H120.068L124.778 48.435H124.118L128.768 40.5H129.998L130.013 51H128.573L128.558 42.765H128.903L124.763 49.725H124.073L119.903 42.765H120.278V51H118.838ZM136.779 45.03H142.179V46.305H136.779V45.03ZM136.914 49.695H143.034V51H135.414V40.5H142.824V41.805H136.914V49.695Z" fill="black"/>
</svg>
