<svg width="51" height="56" viewBox="0 0 51 56" fill="none" xmlns="http://www.w3.org/2000/svg">
<path d="M19.218 31.99L24.0687 23.5884L33.7562 23.5884L38.6119 31.9986L33.8309 41.0132L24.1788 41.0145L19.218 31.99Z" stroke="black" stroke-width="2"/>
<path d="M5.42111 18.2471L2.71056 22.9419L8.13167 32.3315L18.9739 32.3315L24.395 22.9419L18.9739 13.5523L8.13166 13.5523L6.87521 15.36" stroke="black" stroke-width="2"/>
<path d="M21.6844 46.6103L23.0397 44.2629L24.395 41.9155L18.9739 32.5259L8.13166 32.5259L2.71056 41.9155L8.13167 51.3052L18.9739 51.3052L20.8797 48.3382" stroke="black" stroke-width="2"/>
<circle cx="38.4984" cy="12.6492" r="3.11407" fill="black" stroke="black"/>
<circle cx="26.7526" cy="11.7459" r="2.61407" stroke="black" stroke-width="2"/>
<circle cx="45.7265" cy="4.51759" r="4.01759" fill="black" stroke="black"/>
<circle cx="43.9194" cy="22.5881" r="4.42111" stroke="black" stroke-width="2"/>
<path d="M29.9149 12.1973H35.7878" stroke="black" stroke-width="2"/>
<path d="M43.4677 6.77637L40.3054 10.3904" stroke="black" stroke-width="2"/>
<path d="M40.3054 14.9082L41.6607 18.0705" stroke="black" stroke-width="2"/>
<circle cx="6.8752" cy="20.7805" r="0.903518" fill="black"/>
<circle cx="17.7175" cy="48.7902" r="0.903518" fill="black"/>
<path d="M8.68225 18.9738L10.941 15.8115" stroke="black" stroke-width="2"/>
<path d="M18.1692 46.5315L20.428 43.3691" stroke="black" stroke-width="2"/>
</svg>
