<svg width="64" height="21" viewBox="0 0 64 21" fill="none" xmlns="http://www.w3.org/2000/svg">
<path d="M42.1661 0L42.0597 0.0106384C40.251 0.516 40.6154 3.06409 37.3226 3.28219H37.0034C36.9569 3.28056 36.9104 3.28503 36.8651 3.29549H36.8625C36.7223 3.32912 36.5976 3.40919 36.5088 3.52268C36.4199 3.63618 36.3721 3.7764 36.3731 3.92054V6.81972C36.3731 7.17613 36.655 7.46073 37.0034 7.46073H38.719V19.757C38.719 20.1081 38.9956 20.39 39.3387 20.39H42.1528C42.3188 20.3879 42.4772 20.3201 42.5934 20.2015C42.7095 20.0828 42.774 19.923 42.7725 19.757V7.46073H44.3684C44.7142 7.46073 44.9961 7.17613 44.9961 6.81972V3.92054C44.9961 3.75307 44.9304 3.59229 44.8129 3.47288C44.6955 3.35347 44.5359 3.28498 44.3684 3.28219H42.7406V0.582495C42.7406 0.429128 42.6805 0.281881 42.573 0.172444C42.4656 0.0630072 42.3194 0.00278849 42.1661 0ZM53.4037 3.11196C52.3451 3.11196 51.377 3.51093 50.6322 4.16258V3.83277C50.6216 3.67367 50.5519 3.52429 50.4367 3.41403C50.3215 3.30377 50.1693 3.24061 50.0098 3.23697H47.1639C46.9955 3.23977 46.835 3.30899 46.7175 3.42955C46.5999 3.55012 46.5347 3.71225 46.5361 3.88064V19.6266C46.5347 19.795 46.5999 19.9572 46.7175 20.0777C46.835 20.1983 46.9955 20.2675 47.1639 20.2703H50.0098C50.329 20.2703 50.587 20.0283 50.6296 19.7144V8.41028C50.6187 8.13607 50.7161 7.86858 50.9007 7.66555C51.0853 7.46252 51.3424 7.34022 51.6164 7.32508H52.1377C52.358 7.34053 52.5681 7.4242 52.7388 7.56446C52.8633 7.66735 52.9627 7.79721 53.0295 7.94422C53.0963 8.09123 53.1288 8.25151 53.1245 8.41294V19.2489L53.1351 19.6612C53.1344 19.8296 53.2002 19.9915 53.3183 20.1115C53.4364 20.2316 53.5971 20.3001 53.7655 20.3022H56.6115C56.7739 20.299 56.9291 20.2339 57.0452 20.1202C57.1614 20.0065 57.2298 19.8528 57.2365 19.6905L57.2338 8.39698C57.2338 8.02461 57.3988 7.68947 57.6966 7.49265C57.8515 7.38756 58.0313 7.32517 58.218 7.31178H58.7446C59.3564 7.36498 59.7287 7.84374 59.7287 8.39698C59.742 12.1101 59.7394 15.8444 59.7394 19.632C59.7387 19.8003 59.8045 19.9622 59.9226 20.0823C60.0406 20.2023 60.2014 20.2709 60.3698 20.273H63.2157C63.5615 20.273 63.8434 19.9857 63.8434 19.632V7.5485C63.8434 6.72397 63.753 6.37287 63.6307 6.0138C63.3475 5.17184 62.808 4.43958 62.0878 3.91967C61.3675 3.39976 60.5026 3.11826 59.6144 3.11462H59.5745C59 3.11508 58.4316 3.23333 57.9046 3.46207C57.3776 3.69081 56.9031 4.02518 56.5104 4.44452C55.7364 3.6253 54.6485 3.11462 53.4436 3.11462L53.4037 3.11196Z" fill="#85B6FF"/>
<path d="M0.617096 3.26172C0.535361 3.26241 0.454564 3.2792 0.379318 3.31113C0.304072 3.34305 0.23585 3.38948 0.178549 3.44777C0.121248 3.50606 0.0759896 3.57506 0.0453579 3.65085C0.0147262 3.72663 -0.000678643 3.8077 2.29286e-05 3.88943V19.6461C2.29286e-05 19.9972 0.255363 20.2791 0.574539 20.2871H3.47372C3.81949 20.2871 4.10409 20.0025 4.10409 19.6487L4.11473 15.2388H6.8357C9.11514 15.2388 10.7004 13.6296 10.7004 11.2996V7.20886C10.7004 4.87622 9.11514 3.26172 6.8357 3.26172H0.617096ZM24.6404 3.26172C24.472 3.26382 24.3113 3.33237 24.1932 3.45243C24.0751 3.57249 24.0093 3.73434 24.01 3.90273V10.4724C24.01 12.9726 25.7575 14.7494 28.2098 14.7494H30.0052C30.0052 14.7494 30.0477 14.7494 30.1036 14.76C30.2674 14.7802 30.4181 14.86 30.527 14.984C30.6358 15.1081 30.6953 15.2679 30.6941 15.4329C30.6941 15.7787 30.4387 16.058 30.1116 16.1006L30.0637 16.1112L29.2578 16.1272H25.9038C25.7363 16.1299 25.5767 16.1984 25.4593 16.3178C25.3418 16.4373 25.276 16.598 25.2761 16.7655V19.6647C25.2746 19.8331 25.3398 19.9952 25.4574 20.1158C25.575 20.2363 25.7354 20.3056 25.9038 20.3084H30.5584C33.0054 20.3084 34.7529 18.529 34.7529 16.0314V3.90273C34.7529 3.73526 34.6872 3.57448 34.5697 3.45507C34.4523 3.33566 34.2927 3.26717 34.1252 3.26438H31.2792C31.1118 3.26717 30.9521 3.33566 30.8347 3.45507C30.7173 3.57448 30.6515 3.73526 30.6515 3.90273C30.6382 5.99599 30.6515 7.95892 30.6515 9.90057C30.6494 10.0763 30.5787 10.2442 30.4545 10.3685C30.3302 10.4927 30.1623 10.5634 29.9866 10.5655H28.7923C28.6143 10.5634 28.4444 10.4909 28.3198 10.3637C28.1951 10.2366 28.1259 10.0653 28.1274 9.88727C28.1407 7.88179 28.1141 5.89758 28.1141 3.90273C28.1141 3.73526 28.0483 3.57448 27.9309 3.45507C27.8135 3.33566 27.6538 3.26717 27.4864 3.26438L24.6404 3.26172ZM13.9906 3.27768C13.9093 3.27484 13.8284 3.28821 13.7524 3.31702C13.6764 3.34582 13.6069 3.38948 13.5479 3.44545C13.489 3.50141 13.4418 3.56855 13.4091 3.64296C13.3764 3.71736 13.3589 3.79753 13.3575 3.87879V6.59976C13.3575 6.95086 13.6581 7.23812 14.0278 7.23812H17.7861C18.084 7.28333 18.318 7.5041 18.3526 7.84987V8.22224C18.318 8.55206 18.0866 8.79144 17.802 8.81804H15.9402C13.4666 8.81804 11.7005 10.4937 11.7005 12.8476V16.2229C11.7005 18.5635 13.2165 20.2286 15.6769 20.2286H20.8369C21.7625 20.2286 22.5125 19.5104 22.5125 18.6327V7.63177C22.5125 4.96133 21.1614 3.27768 17.9377 3.27768H13.9906ZM4.11473 7.45888H5.91807C6.28778 7.45888 6.58302 7.76476 6.58302 8.13979V10.3634C6.58407 10.4517 6.56771 10.5395 6.53486 10.6215C6.50201 10.7036 6.45333 10.7783 6.39158 10.8416C6.32983 10.9048 6.25623 10.9552 6.17499 10.99C6.09374 11.0248 6.00644 11.0432 5.91807 11.0443H5.65209C5.13964 11.0478 4.62718 11.0478 4.11473 11.0443V7.45888ZM16.536 12.7173H17.7196C18.0893 12.7173 18.3899 13.0046 18.3899 13.3556V15.8346C18.3907 15.9037 18.3781 15.9724 18.3526 16.0367C18.3053 16.166 18.2189 16.2774 18.1055 16.3556C17.9921 16.4337 17.8573 16.4747 17.7196 16.4729H16.536C16.3626 16.4765 16.1949 16.4114 16.0693 16.2918C15.9438 16.1723 15.8706 16.0079 15.8657 15.8346V13.353C15.8657 13.0019 16.1663 12.7173 16.536 12.7173Z" fill="#52459F"/>
</svg>
