<svg width="57" height="59" viewBox="0 0 57 59" fill="none" xmlns="http://www.w3.org/2000/svg">
<path d="M44.4721 21.6139C44.4721 30.2857 37.4422 37.3156 28.7704 37.3156C20.0985 37.3156 13.0686 30.2857 13.0686 21.6139C13.0686 12.942 20.0985 5.91211 28.7704 5.91211C37.4422 5.91211 44.4721 12.942 44.4721 21.6139Z" stroke="black" stroke-width="2"/>
<path d="M32.7268 1.47397C37.8583 2.58023 42.3934 5.55912 45.4468 9.82916C48.5002 14.0992 49.8527 19.3539 49.2402 24.5675C48.6278 29.781 46.0945 34.5793 42.1347 38.0255C38.1749 41.4717 33.073 43.3186 27.8248 43.2056C22.5766 43.0926 17.5589 41.0279 13.7511 37.4144C9.94333 33.8009 7.61884 28.8981 7.23139 23.663C6.84395 18.4279 8.42135 13.2363 11.6557 9.10163C14.89 4.96697 19.5491 2.18602 24.7235 1.30166" stroke="black" stroke-width="2"/>
<path d="M21.4019 26.5267L18.9458 20.5863L25.0862 21.7287L28.2791 16.7021L31.7177 21.7287L37.1212 20.5863L34.9107 26.5267H18.9458H37.6125" stroke="black" stroke-width="2"/>
<path d="M12.0685 35.8594L3 49.9617L15.1618 47.5015L18.9261 56.0002L27.6131 43.2522" stroke="black" stroke-width="2"/>
<path d="M43.9983 36.3506L54.2527 49.9616L42.0909 47.5015L38.3266 56.0001L29.6396 43.2522" stroke="black" stroke-width="2"/>
<circle cx="28.7703" cy="0.982456" r="0.982456" fill="black"/>
</svg>
