<svg width="26" height="27" viewBox="0 0 26 27" fill="none" xmlns="http://www.w3.org/2000/svg">
<path d="M1 21.9606C1 20.2072 1.63214 18.5257 2.75736 17.2859C3.88258 16.0461 5.4087 15.3496 7 15.3496H19C20.5913 15.3496 22.1174 16.0461 23.2426 17.2859C24.3679 18.5257 25 20.2072 25 21.9606C25 22.8372 24.6839 23.678 24.1213 24.2979C23.5587 24.9178 22.7956 25.266 22 25.266H4C3.20435 25.266 2.44129 24.9178 1.87868 24.2979C1.31607 23.678 1 22.8372 1 21.9606Z" stroke="white" stroke-width="2" stroke-linejoin="round"/>
<path d="M13 10.9418C15.4853 10.9418 17.5 8.72196 17.5 5.98361C17.5 3.24526 15.4853 1.02539 13 1.02539C10.5147 1.02539 8.5 3.24526 8.5 5.98361C8.5 8.72196 10.5147 10.9418 13 10.9418Z" stroke="white" stroke-width="2"/>
</svg>
