<svg width="22" height="22" viewBox="0 0 22 22" fill="none" xmlns="http://www.w3.org/2000/svg">
<path d="M1 18.4388C1 16.9777 1.52678 15.5764 2.46447 14.5433C3.40215 13.5101 4.67392 12.9297 6 12.9297H16C17.3261 12.9297 18.5979 13.5101 19.5355 14.5433C20.4732 15.5764 21 16.9777 21 18.4388C21 19.1694 20.7366 19.87 20.2678 20.3866C19.7989 20.9032 19.163 21.1934 18.5 21.1934H3.5C2.83696 21.1934 2.20107 20.9032 1.73223 20.3866C1.26339 19.87 1 19.1694 1 18.4388Z" stroke="black" stroke-width="1.5" stroke-linejoin="round"/>
<path d="M11 9.2637C13.0711 9.2637 14.75 7.4138 14.75 5.13185C14.75 2.84989 13.0711 1 11 1C8.92893 1 7.25 2.84989 7.25 5.13185C7.25 7.4138 8.92893 9.2637 11 9.2637Z" stroke="black" stroke-width="1.5"/>
</svg>
