<svg width="22" height="22" viewBox="0 0 22 22" fill="none" xmlns="http://www.w3.org/2000/svg">
<path d="M10.0767 1.21993C10.4183 0.398636 11.5817 0.398636 11.9233 1.21993L14.204 6.70329C14.348 7.04953 14.6736 7.28609 15.0474 7.31606L20.9671 7.79064C21.8538 7.86173 22.2133 8.96824 21.5378 9.5469L17.0276 13.4104C16.7428 13.6543 16.6184 14.0371 16.7054 14.4019L18.0833 20.1785C18.2897 21.0438 17.3485 21.7276 16.5894 21.264L11.5213 18.1684C11.2012 17.9729 10.7988 17.9729 10.4787 18.1684L5.41061 21.264C4.65152 21.7276 3.71026 21.0438 3.91665 20.1785L5.2946 14.4019C5.38161 14.0371 5.25723 13.6543 4.97245 13.4104L0.462221 9.5469C-0.213315 8.96824 0.14621 7.86173 1.03286 7.79064L6.95261 7.31606C7.3264 7.28609 7.65201 7.04952 7.79602 6.70329L10.0767 1.21993Z" fill="#8A8A8A"/>
</svg>
