<svg width="31" height="31" viewBox="0 0 31 31" fill="none" xmlns="http://www.w3.org/2000/svg">
<path d="M22.4533 30.9997C24.7201 30.9997 26.8941 30.1278 28.497 28.5759C30.0999 27.024 31.0004 24.9192 31.0004 22.7244C31.0004 20.5297 30.0999 18.4249 28.497 16.873C26.8941 15.3211 24.7201 14.4492 22.4533 14.4492C20.1865 14.4492 18.0125 15.3211 16.4096 16.873C14.8067 18.4249 13.9063 20.5297 13.9062 22.7244C13.9063 24.9192 14.8067 27.024 16.4096 28.5759C18.0125 30.1278 20.1865 30.9997 22.4533 30.9997ZM20.7515 19.2378L19.0478 20.8855H21.9785C23.3638 20.8855 24.6923 21.4183 25.6718 22.3667C26.6514 23.3151 27.2017 24.6014 27.2017 25.9426V26.4023C27.2017 26.6462 27.1016 26.8801 26.9235 27.0525C26.7454 27.2249 26.5039 27.3218 26.252 27.3218C26.0001 27.3218 25.7586 27.2249 25.5805 27.0525C25.4024 26.8801 25.3023 26.6462 25.3023 26.4023V25.9426C25.3023 25.0891 24.9521 24.2705 24.3288 23.667C23.7055 23.0635 22.86 22.7244 21.9785 22.7244H19.0478L20.7515 24.3721C20.9298 24.5448 21.03 24.779 21.03 25.0231C21.03 25.2673 20.9298 25.5015 20.7515 25.6741C20.5732 25.8468 20.3313 25.9438 20.0791 25.9438C19.8269 25.9438 19.5851 25.8468 19.4068 25.6741L16.0791 22.4504C15.9027 22.2777 15.8041 22.0444 15.8048 21.8015C15.8056 21.5585 15.9055 21.3258 16.0829 21.154L19.4068 17.9358C19.5851 17.7632 19.8269 17.6662 20.0791 17.6662C20.3313 17.6662 20.5732 17.7632 20.7515 17.9358C20.9298 18.1085 21.03 18.3427 21.03 18.5868C21.03 18.831 20.9298 19.0652 20.7515 19.2378Z" fill="black"/>
<path d="M12.3276 18.5035C11.3422 20.5816 11.4025 22.9217 11.9673 25.1421H0V0H12.3066H24.6132V12.9003C22.3199 12.3534 19.6136 12.5751 17.4672 13.5292C15.6018 14.3583 13.2381 16.5833 12.3276 18.5035Z" fill="black"/>
<rect x="8.14062" y="1.65625" width="8.14006" height="4.26897" fill="#C4C4C4"/>
</svg>
