<svg width="25" height="25" viewBox="0 0 25 25" fill="none" xmlns="http://www.w3.org/2000/svg">
<path d="M0 1.07143C0 0.787268 0.112882 0.514746 0.313814 0.313814C0.514746 0.112882 0.787268 0 1.07143 0H1.86857C3.22571 0 4.04 0.912857 4.50428 1.76143C4.81428 2.32714 5.03857 2.98286 5.21428 3.57714L5.35714 3.57143H23.2114C24.3971 3.57143 25.2543 4.70571 24.9286 5.84714L22.3171 15.0029C22.083 15.8241 21.5877 16.5466 20.9061 17.0612C20.2246 17.5757 19.3939 17.8541 18.54 17.8543H10.0429C9.18213 17.8543 8.34522 17.5717 7.66075 17.0498C6.97628 16.5279 6.48214 15.7957 6.25428 14.9657L5.16857 11.0057L3.36857 4.93714L3.36714 4.92571C3.14428 4.11571 2.93571 3.35714 2.62429 2.79143C2.32571 2.24143 2.08571 2.14286 1.87 2.14286H1.07143C0.787268 2.14286 0.514746 2.02997 0.313814 1.82904C0.112882 1.62811 0 1.35559 0 1.07143ZM7.24714 10.4857L8.32 14.3986C8.53428 15.1729 9.23857 15.7114 10.0429 15.7114H18.54C18.9281 15.7114 19.3057 15.5849 19.6156 15.3511C19.9254 15.1174 20.1506 14.789 20.2571 14.4157L22.7386 5.71429H5.83571L7.22714 10.41L7.24714 10.4857ZM12.1429 22.1429C12.1429 22.9006 11.8418 23.6273 11.306 24.1632C10.7702 24.699 10.0435 25 9.28571 25C8.52795 25 7.80123 24.699 7.26541 24.1632C6.72959 23.6273 6.42857 22.9006 6.42857 22.1429C6.42857 21.3851 6.72959 20.6584 7.26541 20.1226C7.80123 19.5867 8.52795 19.2857 9.28571 19.2857C10.0435 19.2857 10.7702 19.5867 11.306 20.1226C11.8418 20.6584 12.1429 21.3851 12.1429 22.1429ZM10 22.1429C10 21.9534 9.92474 21.7717 9.79079 21.6378C9.65684 21.5038 9.47515 21.4286 9.28571 21.4286C9.09627 21.4286 8.91459 21.5038 8.78064 21.6378C8.64668 21.7717 8.57143 21.9534 8.57143 22.1429C8.57143 22.3323 8.64668 22.514 8.78064 22.6479C8.91459 22.7819 9.09627 22.8571 9.28571 22.8571C9.47515 22.8571 9.65684 22.7819 9.79079 22.6479C9.92474 22.514 10 22.3323 10 22.1429ZM22.1429 22.1429C22.1429 22.9006 21.8418 23.6273 21.306 24.1632C20.7702 24.699 20.0435 25 19.2857 25C18.528 25 17.8012 24.699 17.2654 24.1632C16.7296 23.6273 16.4286 22.9006 16.4286 22.1429C16.4286 21.3851 16.7296 20.6584 17.2654 20.1226C17.8012 19.5867 18.528 19.2857 19.2857 19.2857C20.0435 19.2857 20.7702 19.5867 21.306 20.1226C21.8418 20.6584 22.1429 21.3851 22.1429 22.1429ZM20 22.1429C20 21.9534 19.9247 21.7717 19.7908 21.6378C19.6568 21.5038 19.4752 21.4286 19.2857 21.4286C19.0963 21.4286 18.9146 21.5038 18.7806 21.6378C18.6467 21.7717 18.5714 21.9534 18.5714 22.1429C18.5714 22.3323 18.6467 22.514 18.7806 22.6479C18.9146 22.7819 19.0963 22.8571 19.2857 22.8571C19.4752 22.8571 19.6568 22.7819 19.7908 22.6479C19.9247 22.514 20 22.3323 20 22.1429Z" fill="#52459F"/>
</svg>
