<svg width="26" height="27" viewBox="0 0 26 27" fill="none" xmlns="http://www.w3.org/2000/svg">
<path d="M10.8181 1.02539C8.8763 1.02539 6.97806 1.60698 5.36348 2.69662C3.74889 3.78626 2.49048 5.335 1.74737 7.147C1.00425 8.959 0.809822 10.9529 1.18866 12.8765C1.56749 14.8001 2.50258 16.567 3.87567 17.9539C5.24876 19.3407 6.99819 20.2852 8.90272 20.6678C10.8072 21.0504 12.7813 20.8541 14.5754 20.1035C16.3694 19.3529 17.9028 18.0819 18.9816 16.4512C20.0605 14.8204 20.6363 12.9032 20.6363 10.9419C20.6361 8.31191 19.6016 5.78971 17.7604 3.93005C15.9192 2.07038 13.422 1.02556 10.8181 1.02539Z" stroke="white" stroke-width="2" stroke-miterlimit="10"/>
<path d="M18.1431 18.3398L24.9999 25.2654" stroke="white" stroke-width="2" stroke-miterlimit="10" stroke-linecap="round"/>
</svg>
