<svg width="24" height="30" viewBox="0 0 24 30" fill="none" xmlns="http://www.w3.org/2000/svg">
<path d="M12 0C7.8645 0 4.5 3.3645 4.5 7.5V10.5H3C1.3455 10.5 0 11.8455 0 13.5V27C0 28.6545 1.3455 30 3 30H21C22.6545 30 24 28.6545 24 27V13.5C24 11.8455 22.6545 10.5 21 10.5H19.5V7.5C19.5 3.3645 16.1355 0 12 0ZM7.5 7.5C7.5 5.019 9.519 3 12 3C14.481 3 16.5 5.019 16.5 7.5V10.5H7.5V7.5ZM21.003 27H13.5V23.583C14.3925 23.0625 15 22.1055 15 21C15 19.3455 13.6545 18 12 18C10.3455 18 9 19.3455 9 21C9 22.104 9.6075 23.0625 10.5 23.583V27H3V13.5H21L21.003 27Z" fill="white"/>
</svg>
