<svg width="65" height="65" viewBox="0 0 65 65" fill="none" xmlns="http://www.w3.org/2000/svg">
<g filter="url(#filter0_d_2721_8)">
<circle cx="32.5" cy="29.5" r="21.5" stroke="black" stroke-width="2" shape-rendering="crispEdges"/>
</g>
<path d="M34.8646 34.6677C34.7401 34.6681 34.6171 34.6407 34.5046 34.5873C34.3921 34.5339 34.293 34.4561 34.2146 34.3594L30.1896 29.3594C30.067 29.2103 30 29.0232 30 28.8302C30 28.6372 30.067 28.4502 30.1896 28.301L34.3562 23.301C34.4977 23.1309 34.7009 23.0238 34.9213 23.0035C35.1417 22.9832 35.3611 23.0513 35.5312 23.1927C35.7014 23.3342 35.8084 23.5374 35.8288 23.7578C35.8491 23.9781 35.781 24.1975 35.6396 24.3677L31.9146 28.8344L35.5146 33.301C35.6165 33.4234 35.6812 33.5723 35.7011 33.7303C35.721 33.8882 35.6952 34.0486 35.6269 34.1924C35.5585 34.3361 35.4503 34.4573 35.3153 34.5415C35.1802 34.6258 35.0238 34.6696 34.8646 34.6677Z" fill="black"/>
<defs>
<filter id="filter0_d_2721_8" x="0" y="0" width="65" height="65" filterUnits="userSpaceOnUse" color-interpolation-filters="sRGB">
<feFlood flood-opacity="0" result="BackgroundImageFix"/>
<feColorMatrix in="SourceAlpha" type="matrix" values="0 0 0 0 0 0 0 0 0 0 0 0 0 0 0 0 0 0 127 0" result="hardAlpha"/>
<feOffset dy="3"/>
<feGaussianBlur stdDeviation="5"/>
<feComposite in2="hardAlpha" operator="out"/>
<feColorMatrix type="matrix" values="0 0 0 0 0 0 0 0 0 0 0 0 0 0 0 0 0 0 0.25 0"/>
<feBlend mode="normal" in2="BackgroundImageFix" result="effect1_dropShadow_2721_8"/>
<feBlend mode="normal" in="SourceGraphic" in2="effect1_dropShadow_2721_8" result="shape"/>
</filter>
</defs>
</svg>
