<svg width="10" height="10" viewBox="0 0 10 10" fill="none" xmlns="http://www.w3.org/2000/svg">
<path d="M9.89205 4.80226C9.79597 4.60765 9.66339 4.43329 9.50151 4.28865L5.9044 0.693382C5.68586 0.472993 5.42568 0.298207 5.13898 0.179176C4.85228 0.0601452 4.54477 -0.000756852 4.23432 7.75917e-06H1.70607C1.48227 -0.000668031 1.26053 0.0428063 1.05357 0.127939C0.846616 0.213072 0.658502 0.33819 0.500012 0.496121C0.341523 0.654053 0.215774 0.841693 0.129974 1.04829C0.0441736 1.25488 8.32418e-06 1.47637 9.34553e-06 1.70006V4.22702C-0.000867701 4.53809 0.0599944 4.84625 0.179073 5.13366C0.298151 5.42106 0.473081 5.68201 0.693737 5.90139L4.29084 9.49666C4.44952 9.65543 4.63816 9.78113 4.84583 9.86646C5.05189 9.95429 5.27388 10 5.49845 10C5.95149 9.99466 6.38392 9.80995 6.70091 9.48639L8.10378 8.08937L9.50151 6.69235C9.66037 6.53375 9.78613 6.34521 9.8715 6.13765C10.0428 5.71965 10.0428 5.25108 9.8715 4.83308L9.89205 4.80226ZM3.53545 4.94607C3.24376 4.94607 2.95862 4.85962 2.71609 4.69765C2.47356 4.53568 2.28453 4.30546 2.1729 4.03611C2.06128 3.76676 2.03207 3.47038 2.08898 3.18444C2.14588 2.8985 2.28634 2.63585 2.4926 2.42969C2.69886 2.22354 2.96164 2.08315 3.24773 2.02628C3.53382 1.9694 3.83035 1.99859 4.09984 2.11016C4.36933 2.22173 4.59966 2.41066 4.76171 2.65307C4.92377 2.89548 5.01027 3.18047 5.01027 3.47201C5.01162 3.66669 4.97451 3.85973 4.90106 4.04005C4.82762 4.22036 4.71928 4.38441 4.58226 4.52279C4.44524 4.66117 4.28224 4.77115 4.10261 4.84643C3.92297 4.92171 3.73024 4.96081 3.53545 4.96148V4.94607Z" fill="white"/>
</svg>
