<svg width="30" height="25" viewBox="0 0 30 25" fill="none" xmlns="http://www.w3.org/2000/svg">
<path d="M30 12.5074C30 12.8639 29.8683 13.2057 29.6339 13.4577C29.3995 13.7098 29.0815 13.8514 28.75 13.8514H1.25C0.918479 13.8514 0.600537 13.7098 0.366117 13.4577C0.131696 13.2057 0 12.8639 0 12.5074C0 12.151 0.131696 11.8092 0.366117 11.5571C0.600537 11.3051 0.918479 11.1635 1.25 11.1635H28.75C29.0815 11.1635 29.3995 11.3051 29.6339 11.5571C29.8683 11.8092 30 12.151 30 12.5074ZM1.25 3.09996H28.75C29.0815 3.09996 29.3995 2.95837 29.6339 2.70633C29.8683 2.4543 30 2.11247 30 1.75603C30 1.3996 29.8683 1.05777 29.6339 0.805736C29.3995 0.553701 29.0815 0.412109 28.75 0.412109H1.25C0.918479 0.412109 0.600537 0.553701 0.366117 0.805736C0.131696 1.05777 0 1.3996 0 1.75603C0 2.11247 0.131696 2.4543 0.366117 2.70633C0.600537 2.95837 0.918479 3.09996 1.25 3.09996ZM28.75 21.9149H1.25C0.918479 21.9149 0.600537 22.0565 0.366117 22.3085C0.131696 22.5606 0 22.9024 0 23.2588C0 23.6153 0.131696 23.9571 0.366117 24.2091C0.600537 24.4612 0.918479 24.6028 1.25 24.6028H28.75C29.0815 24.6028 29.3995 24.4612 29.6339 24.2091C29.8683 23.9571 30 23.6153 30 23.2588C30 22.9024 29.8683 22.5606 29.6339 22.3085C29.3995 22.0565 29.0815 21.9149 28.75 21.9149Z" fill="white"/>
</svg>
