<svg width="17" height="26" viewBox="0 0 17 26" fill="none" xmlns="http://www.w3.org/2000/svg">
<path d="M8.24332 25.1087C7.95908 25.105 7.68753 24.9904 7.48652 24.7894C7.28552 24.5884 7.17095 24.3169 7.16724 24.0326V1.07609C7.16724 0.790691 7.28061 0.516984 7.48242 0.315178C7.68422 0.113373 7.95793 0 8.24332 0C8.52872 0 8.80243 0.113373 9.00423 0.315178C9.20604 0.516984 9.31941 0.790691 9.31941 1.07609V24.0326C9.31569 24.3169 9.20113 24.5884 9.00012 24.7894C8.79912 24.9904 8.52756 25.105 8.24332 25.1087Z" fill="#52459F"/>
<path d="M10.4022 22.233H1.07609C0.790691 22.233 0.516984 22.1196 0.315178 21.9178C0.113373 21.716 0 21.4423 0 21.1569C0 20.8715 0.113373 20.5978 0.315178 20.396C0.516984 20.1942 0.790691 20.0808 1.07609 20.0808H10.4022C11.3513 20.1654 12.2959 19.8749 13.0334 19.2715C13.771 18.668 14.2428 17.7997 14.3478 16.8526C14.2428 15.9055 13.771 15.0371 13.0334 14.4337C12.2959 13.8303 11.3513 13.5397 10.4022 13.6243H6.09783C5.34383 13.6729 4.58766 13.5722 3.8727 13.3278C3.15774 13.0835 2.49806 12.7004 1.93151 12.2005C1.36496 11.7006 0.902699 11.0938 0.571242 10.4148C0.239784 9.73581 0.0456576 8.99806 0 8.24389C0.0456576 7.48971 0.239784 6.75196 0.571242 6.07299C0.902699 5.39401 1.36496 4.78717 1.93151 4.28728C2.49806 3.78738 3.15774 3.40428 3.8727 3.15994C4.58766 2.9156 5.34383 2.81485 6.09783 2.86345H13.9891C14.2745 2.86345 14.5482 2.97682 14.75 3.17863C14.9518 3.38043 15.0652 3.65414 15.0652 3.93954C15.0652 4.22493 14.9518 4.49864 14.75 4.70045C14.5482 4.90225 14.2745 5.01562 13.9891 5.01562H6.09783C5.14865 4.93103 4.20411 5.22158 3.46658 5.82501C2.72905 6.42845 2.25721 7.29676 2.15217 8.24389C2.25721 9.19101 2.72905 10.0593 3.46658 10.6628C4.20411 11.2662 5.14865 11.5567 6.09783 11.4721H10.4022C11.1562 11.4235 11.9123 11.5243 12.6273 11.7686C13.3423 12.013 14.0019 12.3961 14.5685 12.896C15.135 13.3959 15.5973 14.0027 15.9288 14.6817C16.2602 15.3607 16.4543 16.0984 16.5 16.8526C16.4543 17.6068 16.2602 18.3445 15.9288 19.0235C15.5973 19.7025 15.135 20.3093 14.5685 20.8092C14.0019 21.3091 13.3423 21.6922 12.6273 21.9365C11.9123 22.1809 11.1562 22.2816 10.4022 22.233Z" fill="#52459F"/>
</svg>
