<svg width="20" height="20" viewBox="0 0 20 20" fill="none" xmlns="http://www.w3.org/2000/svg">
<g clip-path="url(#clip0_2613_1318)">
<path d="M15.3125 0H4.6875C2.09867 0 0 2.09867 0 4.6875V15.3125C0 17.9013 2.09867 20 4.6875 20H15.3125C17.9013 20 20 17.9013 20 15.3125V4.6875C20 2.09867 17.9013 0 15.3125 0Z" fill="white"/>
<path d="M15.3125 0H4.6875C2.09867 0 0 2.09867 0 4.6875V15.3125C0 17.9013 2.09867 20 4.6875 20H15.3125C17.9013 20 20 17.9013 20 15.3125V4.6875C20 2.09867 17.9013 0 15.3125 0Z" fill="#1D9BF0"/>
<path d="M15.5916 7.14148C15.6002 7.26547 15.6002 7.38945 15.6002 7.51461C15.6002 11.3269 12.698 15.7236 7.39117 15.7236V15.7212C5.82345 15.7235 4.28821 15.2745 2.96875 14.4279C3.19682 14.4552 3.42573 14.4691 3.65547 14.4695C4.95485 14.4706 6.21685 14.0348 7.23867 13.2321C6.63664 13.2207 6.05321 13.0215 5.56995 12.6622C5.08669 12.303 4.72774 11.8018 4.54328 11.2286C4.97553 11.312 5.42114 11.295 5.84578 11.1789C4.49984 10.9069 3.53148 9.72437 3.53148 8.35093V8.31437C3.93272 8.53787 4.38178 8.66171 4.84086 8.67547C3.5732 7.8282 3.18242 6.14172 3.94789 4.82312C4.67216 5.7145 5.57587 6.44352 6.6003 6.96282C7.62473 7.48213 8.74696 7.78008 9.89406 7.83734C9.77969 7.34503 9.79659 6.83131 9.94305 6.34758C10.0895 5.86384 10.3604 5.42704 10.7287 5.08086C11.8907 3.98851 13.7183 4.04453 14.8106 5.20593C15.4567 5.07838 16.0763 4.84152 16.6427 4.50554C16.4274 5.17357 15.9766 5.7406 15.3745 6.10117C15.9464 6.03372 16.5049 5.88063 17.0312 5.64703C16.6441 6.22689 16.1566 6.73293 15.5916 7.14148Z" fill="white"/>
</g>
<defs>
<clipPath id="clip0_2613_1318">
<rect width="20" height="20" fill="white"/>
</clipPath>
</defs>
</svg>
