<svg width="62" height="60" viewBox="0 0 62 60" fill="none" xmlns="http://www.w3.org/2000/svg">
<path d="M54.9156 19.2323C54.9156 18.0877 54.9156 15.5699 51.5148 15.3412C48.0572 15.1087 22.1166 15.1886 9.57143 15.3412C7.07787 15.3715 6.39801 16.7144 6.39735 19.2323V28.8456C6.32187 29.9137 6.85103 32.05 9.57143 32.05C12.2918 32.05 38.6671 32.05 51.5148 32.05C52.6484 32.05 54.9156 31.4091 54.9156 28.8456" stroke="black" stroke-width="2"/>
<path d="M10.4805 15.1076C15 -0.0713252 41 -7.01787 51.0635 15.113M18.189 10.9927C22.4967 7.25413 33.2886 2.0202 41.9946 10.9927" stroke="black" stroke-width="2"/>
<path d="M10.707 32.0542C15.9216 44.4133 37.9135 55.396 51.29 32.0489M18.4155 36.1692C22.7232 39.9077 33.5151 45.1417 42.2212 36.1692" stroke="black" stroke-width="2"/>
<path d="M12.5223 35.2559L3 44.6404L13.6559 46.2426V57.0004L26.3522 45.0981" stroke="black" stroke-width="2"/>
<path d="M49.4777 35.2559L59 44.6404L48.3441 46.2426V57.0004L35.6478 45.0981" stroke="black" stroke-width="2"/>
<ellipse cx="55" cy="23.7504" rx="1" ry="0.992541" fill="black"/>
<path d="M18.7547 28.1941C18.5814 28.1941 18.4214 28.1341 18.2747 28.0141C18.128 27.9075 18.0547 27.7475 18.0547 27.5341V20.5541C18.0547 20.3275 18.128 20.1608 18.2747 20.0541C18.4214 19.9475 18.5814 19.8941 18.7547 19.8941C18.9414 19.8941 19.1014 19.9475 19.2347 20.0541C19.3814 20.1608 19.4547 20.3275 19.4547 20.5541V27.5341C19.4547 27.7475 19.3814 27.9075 19.2347 28.0141C19.1014 28.1341 18.9414 28.1941 18.7547 28.1941ZM27.957 28.1941C27.3704 28.1941 26.8037 28.0941 26.257 27.8941C25.7237 27.6941 25.3104 27.4075 25.017 27.0341C24.9104 26.8875 24.857 26.7408 24.857 26.5941C24.857 26.4208 24.9237 26.2741 25.057 26.1541C25.2037 26.0208 25.3637 25.9541 25.537 25.9541C25.6304 25.9541 25.7237 25.9741 25.817 26.0141C25.9104 26.0408 25.9837 26.0941 26.037 26.1741C26.2504 26.4275 26.537 26.6275 26.897 26.7741C27.2704 26.9208 27.657 26.9941 28.057 26.9941C28.5237 26.9941 28.9037 26.8808 29.197 26.6541C29.5037 26.4275 29.657 26.1275 29.657 25.7541C29.657 25.3275 29.477 25.0275 29.117 24.8541C28.7704 24.6675 28.3637 24.5341 27.897 24.4541C27.4704 24.3741 27.037 24.2608 26.597 24.1141C26.157 23.9541 25.7904 23.7275 25.497 23.4341C25.2037 23.1275 25.057 22.7141 25.057 22.1941C25.057 21.4875 25.3237 20.9275 25.857 20.5141C26.4037 20.1008 27.1304 19.8941 28.037 19.8941C28.517 19.8941 28.957 19.9675 29.357 20.1141C29.757 20.2475 30.0904 20.4341 30.357 20.6741C30.517 20.8075 30.597 20.9741 30.597 21.1741C30.597 21.3341 30.537 21.4741 30.417 21.5941C30.297 21.7141 30.157 21.7741 29.997 21.7741C29.837 21.7741 29.6837 21.7208 29.537 21.6141C29.1104 21.2675 28.5837 21.0941 27.957 21.0941C26.8904 21.0941 26.357 21.4541 26.357 22.1741C26.357 22.5208 26.517 22.7608 26.837 22.8941C27.1704 23.0141 27.617 23.1408 28.177 23.2741C28.4437 23.3275 28.7304 23.4075 29.037 23.5141C29.357 23.6075 29.6637 23.7475 29.957 23.9341C30.2504 24.1075 30.4904 24.3475 30.677 24.6541C30.8637 24.9475 30.957 25.3208 30.957 25.7741C30.957 26.4941 30.677 27.0808 30.117 27.5341C29.5704 27.9741 28.8504 28.1941 27.957 28.1941ZM40.1331 28.1941C39.3598 28.1941 38.6531 28.0141 38.0131 27.6541C37.3865 27.2808 36.8865 26.7808 36.5131 26.1541C36.1398 25.5141 35.9531 24.7941 35.9531 23.9941C35.9531 23.1541 36.1398 22.4208 36.5131 21.7941C36.8865 21.1675 37.3865 20.6808 38.0131 20.3341C38.6531 19.9741 39.3598 19.7941 40.1331 19.7941C40.9065 19.7941 41.5998 19.9741 42.2131 20.3341C42.8398 20.6808 43.3331 21.1675 43.6931 21.7941C44.0665 22.4208 44.2531 23.1541 44.2531 23.9941C44.2531 24.7941 44.0665 25.5141 43.6931 26.1541C43.3331 26.7808 42.8398 27.2808 42.2131 27.6541C41.5998 28.0141 40.9065 28.1941 40.1331 28.1941ZM40.1331 26.9741C40.6665 26.9741 41.1331 26.8408 41.5331 26.5741C41.9465 26.2941 42.2665 25.9275 42.4931 25.4741C42.7198 25.0208 42.8331 24.5275 42.8331 23.9941C42.8331 23.1408 42.5798 22.4341 42.0731 21.8741C41.5665 21.3141 40.9198 21.0341 40.1331 21.0341C39.3331 21.0341 38.6798 21.3141 38.1731 21.8741C37.6665 22.4341 37.4131 23.1408 37.4131 23.9941C37.4131 24.5275 37.5265 25.0208 37.7531 25.4741C37.9798 25.9275 38.2998 26.2941 38.7131 26.5741C39.1265 26.8408 39.5998 26.9741 40.1331 26.9741Z" fill="black"/>
</svg>
