<svg width="58" height="59" viewBox="0 0 58 59" fill="none" xmlns="http://www.w3.org/2000/svg">
<path d="M25.6408 50.7428C15.2314 52.3817 -4.02602 49.0442 2.21963 22.583C5.12822 24.3709 13.2416 27.0528 14.6193 27.4998C18.1318 28.6394 26.5595 29.2877 27.0188 35.9924M25.6408 50.7428C23.0386 45.826 16.5481 35.9924 11.4046 35.9924M25.6408 50.7428C24.1711 44.3063 25.9471 38.2273 27.0188 35.9924M27.0188 35.9924C29.0088 33.1615 34.9177 27.6786 42.6329 28.3938C50.3481 29.1089 54.4201 24.8179 55.4916 22.583C59.0125 33.9065 58.6145 56.6429 28.8557 57.0005C30.9989 51.0408 37.3057 38.9425 45.3884 38.2273" stroke="black" stroke-width="2"/>
<path d="M20.0285 14.1517C18.4977 12.5128 17 8 19.501 6.5" stroke="black" stroke-width="2"/>
<ellipse cx="20.9185" cy="4.89396" rx="0.918479" ry="0.893961" fill="black"/>
<path d="M16.3017 2.4674C8.92199 8.82953 20.9683 23.6341 28.8017 29.4674C42.8006 17.9686 47.5 5.86463 40 2C35.4554 -0.341773 31.5 3 28.8017 6.9674C25.6008 -0.232599 18.9219 0.210755 16.3017 2.4674Z" stroke="black" stroke-width="2"/>
</svg>
