<svg width="20" height="25" viewBox="0 0 20 25" fill="none" xmlns="http://www.w3.org/2000/svg">
<path d="M9.99564 15.0198C12.7532 15.0198 14.9958 12.7773 14.9958 10.0197C14.9958 7.2621 12.7532 5.01953 9.99564 5.01953C7.23805 5.01953 4.99548 7.2621 4.99548 10.0197C4.99548 12.7773 7.23805 15.0198 9.99564 15.0198ZM9.99564 7.51961C11.3744 7.51961 12.4957 8.64089 12.4957 10.0197C12.4957 11.3985 11.3744 12.5198 9.99564 12.5198C8.61684 12.5198 7.49556 11.3985 7.49556 10.0197C7.49556 8.64089 8.61684 7.51961 9.99564 7.51961Z" fill="#52459F"/>
<path d="M9.2754 24.7683C9.48711 24.919 9.74053 25 10.0004 25C10.2603 25 10.5137 24.919 10.7254 24.7683C11.1055 24.4995 20.037 18.0506 20.0007 10.0003C20.0007 4.48639 15.5143 0 10.0004 0C4.4865 0 0.000110051 4.48639 0.000110051 9.99406C-0.0361411 18.0506 8.89538 24.4995 9.2754 24.7683ZM10.0004 2.50008C14.1368 2.50008 17.5006 5.86393 17.5006 10.0066C17.5269 15.5542 12.0155 20.5356 10.0004 22.1694C7.98661 20.5344 2.47394 15.5517 2.50019 10.0003C2.50019 5.86393 5.86404 2.50008 10.0004 2.50008Z" fill="#52459F"/>
</svg>
